<?xml version="1.0" encoding="UTF-8" standalone="no"?>
<svg
   enable-background="new 0 0 24 24"
   height="24px"
   viewBox="0 0 24 24"
   width="24px"
   fill="#000000"
   version="1.1"
   id="svg12"
   xmlns="http://www.w3.org/2000/svg"
   xmlns:svg="http://www.w3.org/2000/svg">
  <defs
     id="defs16" />
  <path
     id="path30291-6"
     style="color:#000000;fill:#1a1a1a;fill-opacity:1;stroke-width:0.799949;stroke-linecap:round;stroke-linejoin:round;-inkscape-stroke:none"
     d="m 11.99835,3.8006779 c -1.310914,0 -2.3998439,1.0886292 -2.3998439,2.399844 0,0.5558638 0.2099867,1.0712303 0.5219659,1.4810037 C 8.0986039,8.302785 6.5057074,9.9022813 5.8847477,11.924989 5.4737743,11.597411 4.9578078,11.400024 4.3998441,11.400024 c -1.3109148,0 -2.3998439,1.088629 -2.3998439,2.399843 0,1.311216 1.0889291,2.399845 2.3998439,2.399845 0.554964,0 1.0709304,-0.194988 1.4819037,-0.521967 0.8039477,2.61613 3.240389,4.521577 6.1184022,4.521577 2.876814,0 5.314455,-1.905476 6.118103,-4.521577 0.410973,0.32548 0.92694,0.521967 1.481904,0.521967 1.310914,0 2.399843,-1.088629 2.399843,-2.399845 0,-1.311214 -1.088929,-2.399843 -2.399843,-2.399843 -0.554964,0 -1.070931,0.194987 -1.481904,0.521966 -0.62096,-2.0221685 -2.219856,-3.6191147 -4.240225,-4.2403742 0.323979,-0.4097733 0.521967,-0.9251398 0.521967,-1.4810038 0,-1.3112147 -1.08893,-2.3998439 -2.399845,-2.3998439 z m 0,1.199922 a 1.199922,1.199922 0 0 1 1.199923,1.199922 1.199922,1.199922 0 0 1 -1.199923,1.199922 1.199922,1.199922 0 0 1 -1.199922,-1.199922 1.199922,1.199922 0 0 1 1.199922,-1.199922 z M 9.5985061,10.200252 a 1.199922,1.199922 0 0 1 1.1999219,1.199922 1.199922,1.199922 0 0 1 -1.1999219,1.199922 1.199922,1.199922 0 0 1 -1.1999223,-1.199922 1.199922,1.199922 0 0 1 1.1999223,-1.199922 z m 4.7996889,0 a 1.199922,1.199922 0 0 1 1.199922,1.199922 1.199922,1.199922 0 0 1 -1.199922,1.199922 1.199922,1.199922 0 0 1 -1.199922,-1.199922 1.199922,1.199922 0 0 1 1.199922,-1.199922 z m -2.399845,1.199922 c 0,1.311214 1.08893,2.399843 2.399845,2.399843 0.965937,0 1.811882,-0.590961 2.189857,-1.426407 0.149991,0.449671 0.209987,0.92874 0.209987,1.426407 0,1.86228 -1.034933,3.456976 -2.564834,4.254414 0.323979,-0.858245 0.149991,-1.874278 -0.539964,-2.557634 -0.46497,-0.463469 -1.07993,-0.695354 -1.69789,-0.695354 -0.61796,0 -1.23292,0.230984 -1.69789,0.695354 -0.6839556,0.683356 -0.8639437,1.699389 -0.5399647,2.557634 -1.5299009,-0.797348 -2.5648335,-2.392044 -2.5648335,-4.254414 0,-0.497667 0.059995,-0.976736 0.2099859,-1.426407 0.3779758,0.835446 1.2239205,1.426407 2.1898579,1.426407 1.3109144,0 2.3998444,-1.088629 2.3998444,-2.399843 z M 4.3986442,12.600096 A 1.199922,1.199922 0 0 1 5.5985663,13.800017 1.199922,1.199922 0 0 1 4.3986442,14.99994 1.199922,1.199922 0 0 1 3.1987223,13.800017 1.199922,1.199922 0 0 1 4.3986442,12.600096 Z m 15.1991128,0 a 1.199922,1.199922 0 0 1 1.199922,1.199921 1.199922,1.199922 0 0 1 -1.199922,1.199923 1.199922,1.199922 0 0 1 -1.199923,-1.199923 1.199922,1.199922 0 0 1 1.199923,-1.199921 z m -7.606306,3.393589 a 1.199922,1.199922 0 0 1 0.854945,0.351577 1.199922,1.199922 0 0 1 0,1.69669 1.199922,1.199922 0 0 1 -1.697891,0 1.199922,1.199922 0 0 1 0,-1.69669 1.199922,1.199922 0 0 1 0.761951,-0.348277 1.199922,1.199922 0 0 1 0.08999,-0.003 z" />
</svg>
