<?xml version="1.0" encoding="UTF-8" standalone="no"?>
<svg
   width="24"
   height="24"
   viewBox="0 0 24 24"
   version="1.1"
   id="svg8"
   xmlns="http://www.w3.org/2000/svg"
   xmlns:svg="http://www.w3.org/2000/svg"
   xmlns:rdf="http://www.w3.org/1999/02/22-rdf-syntax-ns#"
   xmlns:cc="http://creativecommons.org/ns#"
   xmlns:dc="http://purl.org/dc/elements/1.1/">
  <style
     id="style945" />
  <defs
     id="defs2" />
  <metadata
     id="metadata5">
    <rdf:RDF>
      <cc:Work
         rdf:about="">
        <dc:format>image/svg+xml</dc:format>
        <dc:type
           rdf:resource="http://purl.org/dc/dcmitype/StillImage" />
      </cc:Work>
    </rdf:RDF>
  </metadata>
  <g
     id="layer1">
    <text
       xml:space="preserve"
       style="font-size:1550px;line-height:1.25;font-family:sans-serif;stroke-width:0.264583"
       x="1830.1997"
       y="2431.1201"
       id="text2490"><tspan
         id="tspan2488"
         x="1830.1997"
         y="2431.1201"
         style="stroke-width:0.264583" /></text>
    <g
       id="g18"
       transform="matrix(0.08309567,0,0,0.08309567,0.12770626,0.1276494)">
      <path
         id="path2532"
         style="color:#000000;font-style:normal;font-variant:normal;font-weight:normal;font-stretch:normal;font-size:medium;line-height:normal;font-family:sans-serif;font-variant-ligatures:normal;font-variant-position:normal;font-variant-caps:normal;font-variant-numeric:normal;font-variant-alternates:normal;font-variant-east-asian:normal;font-feature-settings:normal;font-variation-settings:normal;text-indent:0;text-align:start;text-decoration:none;text-decoration-line:none;text-decoration-style:solid;text-decoration-color:#000000;letter-spacing:normal;word-spacing:normal;text-transform:none;writing-mode:lr-tb;direction:ltr;text-orientation:mixed;dominant-baseline:auto;baseline-shift:baseline;text-anchor:start;white-space:normal;shape-padding:0;shape-margin:0;inline-size:0;clip-rule:nonzero;display:inline;overflow:visible;visibility:visible;isolation:auto;mix-blend-mode:normal;color-interpolation:sRGB;color-interpolation-filters:linearRGB;solid-color:#000000;solid-opacity:1;vector-effect:none;fill:#2c2c34;fill-opacity:1;fill-rule:nonzero;stroke:none;stroke-width:22.0561;stroke-linecap:round;stroke-linejoin:round;stroke-miterlimit:4;stroke-dasharray:none;stroke-dashoffset:0;stroke-opacity:1;paint-order:stroke markers fill;color-rendering:auto;image-rendering:auto;shape-rendering:auto;text-rendering:auto;enable-background:accumulate;stop-color:#000000"
         d="m 142.86208,22.532474 c -1.93067,0.0024 -3.82674,0.511824 -5.49889,1.476913 -5.27501,3.045097 -7.08285,9.789856 -4.03748,15.064713 l 53.55952,92.77211 c -38.18839,0 -68.74647,0 -107.122659,0 -8.489032,10e-4 -13.794382,9.19038 -9.550836,16.54266 l 63.113975,109.31374 c 3.0451,5.27502 9.79037,7.08233 15.06523,4.03697 5.27122,-3.04636 7.07619,-9.78764 4.03283,-15.06058 L 98.864765,153.90275 c 35.707555,0 71.415105,0 107.122665,0 8.48903,-0.001 13.79438,-9.19038 9.55083,-16.54266 L 152.42377,28.046349 c -1.97202,-3.415509 -5.61776,-5.517937 -9.56169,-5.513875 z" />
      <path
         id="path2534"
         style="fill:#f2bb05;fill-opacity:1;stroke:none;stroke-width:22.0561;stroke-linecap:round;stroke-linejoin:round;stroke-miterlimit:4;stroke-dasharray:none;paint-order:stroke markers fill;stop-color:#000000"
         d="m 111.30316,77.189589 a 11.028045,11.028045 0 0 0 -5.49908,1.47661 11.028045,11.028045 0 0 0 -4.03719,15.065847 l 22.00611,38.114384 12.73465,22.05631 28.92766,50.10287 a 11.028045,11.028045 0 0 0 15.06484,4.03714 11.028045,11.028045 0 0 0 4.03714,-15.06479 L 161.977,153.90274 149.2423,131.84643 120.86892,82.703389 a 11.028045,11.028045 0 0 0 -9.56576,-5.5138 z" />
      <path
         id="path2536"
         style="fill:#cc2936;fill-opacity:1;stroke:none;stroke-width:46.033;stroke-linecap:round;stroke-linejoin:round;stroke-miterlimit:4;stroke-dasharray:none;paint-order:stroke markers fill;stop-color:#000000"
         d="m 123.38041,123.3802 a 27.569303,27.569303 0 0 1 38.98889,0 27.569303,27.569303 0 0 1 2e-5,38.98889 27.569303,27.569303 0 0 1 -38.98889,0 27.569303,27.569303 0 0 1 -2e-5,-38.98889 z" />
    </g>
  </g>
</svg>
