<svg
   class="logo logo-jaigansa"
   width="24"
   height="24"
   viewBox="0 0 24 24"
   version="1.1"
   id="svg307"
   xmlns="http://www.w3.org/2000/svg"
   xmlns:svg="http://www.w3.org/2000/svg">
  <defs
     id="defs311" />

   <path
     id="path290-3"
     style="color:#000000;font-style:normal;font-variant:normal;font-weight:normal;font-stretch:normal;font-size:medium;line-height:normal;font-family:sans-serif;font-variant-ligatures:normal;font-variant-position:normal;font-variant-caps:normal;font-variant-numeric:normal;font-variant-alternates:normal;font-feature-settings:normal;text-indent:0;text-align:start;text-decoration:none;text-decoration-line:none;text-decoration-style:solid;text-decoration-color:#000000;letter-spacing:normal;word-spacing:normal;text-transform:none;writing-mode:lr-tb;direction:ltr;text-orientation:mixed;dominant-baseline:auto;baseline-shift:baseline;text-anchor:start;white-space:normal;shape-padding:0;clip-rule:nonzero;display:inline;overflow:visible;visibility:visible;isolation:auto;mix-blend-mode:normal;color-interpolation:sRGB;color-interpolation-filters:linearRGB;solid-color:#000000;solid-opacity:1;fill:none;fill-opacity:1;fill-rule:nonzero;stroke:#ff440d;stroke-width:0.444444;stroke-linecap:round;stroke-linejoin:round;stroke-miterlimit:4;stroke-dasharray:none;stroke-dashoffset:0;stroke-opacity:1;paint-order:markers stroke fill;color-rendering:auto;image-rendering:auto;shape-rendering:auto;text-rendering:auto;enable-background:accumulate"
     d="m 12.347567,19.543702 c 0.1912,-1.977502 1.560822,-3.611666 3.626444,-4.165146 0.232134,-0.06152 0.419511,-0.168875 0.543534,-0.336546 0.143133,-0.180952 0.216155,-0.73984 0.195311,-1.017231 -0.02089,-0.277387 0.277044,-0.595696 0.3002,-0.708854 0.02316,-0.113153 -0.298934,-0.376015 -0.467,-0.404513 0.04833,-0.07059 0.368422,-0.272176 0.246955,-0.492144 -0.167178,-0.06268 -0.315533,-0.538369 -0.315533,-0.538369 0,0 0.206511,-0.136756 0.528,-0.350042 0.212311,-0.265178 -0.0568,-0.542172 -0.184378,-0.665538 C 16.6935,10.74195 16.307789,10.423099 15.939722,10.11649 15.5615,9.8014434 15.478056,9.4982856 15.4921,9.2802479 15.5061,9.0622101 15.382478,8.6475835 15.102256,8.4485213 14.822034,8.2494613 14.215545,7.4102391 14.215545,7.4102391 15.4331,5.9572926 13.637923,5.8977571 13.558034,4.8753016 c -0.882467,0.7678777 -3.011467,0.6323466 -4.9995776,1.043011 -1.9577553,0.4044 -2.8274441,1.7335487 -2.541733,2.7629354 -1.4926888,3.1286 -0.3180222,5.950217 3.3636218,6.903079 -0.3675333,1.08536 -1.0806443,1.884593 -2.102222,2.298656 m 6.6342438,3.681986 c -0.01267,-0.08306 -0.02733,-0.165809 -0.04391,-0.248176 -0.137622,-0.660037 -0.399111,-1.287997 -0.770667,-1.850608 -0.363266,0.05645 -0.730177,0.08632 -1.097777,0.08937 -1.969711,-0.0049 -3.8596222,-0.778873 -5.2670221,-2.156902 -0.7107554,0.273189 -1.3547554,0.6954 -1.8887109,1.23824 M 21.777773,12 A 9.7777767,9.7777767 0 0 1 11.999996,21.777777 9.7777767,9.7777767 0 0 1 2.2222195,12 9.7777767,9.7777767 0 0 1 11.999996,2.2222233 9.7777767,9.7777767 0 0 1 21.777773,12 Z" />

</svg>
