<svg xmlns="http://www.w3.org/2000/svg" class="icon icon-tabler icon-tabler-user" width="24" height="24" viewBox="0 0 24 24" stroke-width="2" stroke="currentColor" fill="none" stroke-linecap="round" stroke-linejoin="round">
  <path
     id="path1742-7"
     d="m 21.722217,11.972223 a 9.75,9.75 0 0 1 -9.75,9.75 9.75,9.75 0 0 1 -9.7500004,-9.75 9.75,9.75 0 0 1 9.7500004,-9.7499997 9.75,9.75 0 0 1 9.75,9.7499997 z" />
  <path
     id="path1742-3-6-5"
     d="m 13.879155,21.51002 c -0.01263,-0.08282 -0.02726,-0.165338 -0.04379,-0.247471 -0.137231,-0.658162 -0.397977,-1.284338 -0.768477,-1.845351 -0.362234,0.0563 -0.728102,0.08608 -1.094658,0.08911 C 10.008118,19.501391 8.1235756,18.72965 6.7201735,17.355536 6.0114358,17.627949 5.369267,18.04896 4.8368271,18.590258" />
  <path
     id="path290-3"
     d="m 12.3188,19.494495 c 0.190657,-1.971884 1.556388,-3.601406 3.616142,-4.153313 0.231475,-0.06134 0.418319,-0.168396 0.541991,-0.335591 0.142726,-0.180437 0.21554,-0.737738 0.194755,-1.014341 -0.02083,-0.276599 0.276258,-0.594004 0.299347,-0.70684 0.02309,-0.112832 -0.298085,-0.374947 -0.465674,-0.403364 0.0482,-0.07039 0.367376,-0.271402 0.246254,-0.490746 -0.166702,-0.0625 -0.314636,-0.53684 -0.314636,-0.53684 0,0 0.205925,-0.136367 0.5265,-0.349047 0.211707,-0.264425 -0.05664,-0.540631 -0.183855,-0.663647 C 16.652388,10.717747 16.267773,10.399802 15.90075,10.094064 15.523604,9.7799123 15.440395,9.4776157 15.454399,9.2601975 15.468362,9.042779 15.34509,8.6293302 15.065664,8.4308335 14.786237,8.2323391 14.181471,7.395501 14.181471,7.395501 15.395568,5.946682 13.605491,5.8873156 13.525828,4.8677647 12.645869,5.633461 10.522918,5.498315 8.5404534,5.9078127 6.5882602,6.3110639 5.7210425,7.6364368 6.0059403,8.6628991 4.5174938,11.782611 5.6888225,14.596213 9.3600066,15.546368 8.9935178,16.628645 8.2824334,17.425608 7.2637579,17.838493" />
</svg>
