<?xml version="1.0" encoding="UTF-8" standalone="no"?>
<svg
   class="icon icon-tabler icon-tabler-user"
   width="24"
   height="24"
   viewBox="0 0 24 24"
   fill="none"
   xmlns="http://www.w3.org/2000/svg"
   xmlns:svg="http://www.w3.org/2000/svg">


  <path
     id="path1742-7"
     fill="currentColor"
     d="M 11.972656 1.2226562 C 6.0474519 1.2226561 1.2226564 6.0474519 1.2226562 11.972656 C 1.2226562 17.897861 6.0474518 22.722656 11.972656 22.722656 C 17.897861 22.722656 22.722656 17.897861 22.722656 11.972656 C 22.722656 6.0474521 17.897861 1.2226563 11.972656 1.2226562 z M 11.972656 3.2226562 C 16.816982 3.2226562 20.722656 7.1283301 20.722656 11.972656 C 20.722656 16.072592 17.925403 19.498504 14.128906 20.455078 C 13.970101 19.993244 13.754825 19.552096 13.484375 19.142578 C 13.376636 18.979275 13.183558 18.893801 12.990234 18.923828 C 12.793924 18.954338 12.596352 18.974818 12.398438 18.988281 C 12.756185 17.247939 14.055395 15.84558 15.935547 15.341797 C 16.167022 15.280457 16.352891 15.173054 16.476562 15.005859 C 16.619288 14.825423 16.69266 14.26879 16.671875 13.992188 C 16.651045 13.715589 16.947614 13.397992 16.970703 13.285156 C 16.993793 13.172324 16.673448 12.909276 16.505859 12.880859 C 16.554059 12.810469 16.873075 12.609969 16.751953 12.390625 C 16.585251 12.328125 16.4375 11.853516 16.4375 11.853516 C 16.4375 11.853516 16.642316 11.716586 16.962891 11.503906 C 17.174597 11.239482 16.906512 10.96286 16.779297 10.839844 C 16.652061 10.716825 16.267413 10.399488 15.900391 10.09375 C 15.523245 9.7795986 15.441074 9.4771836 15.455078 9.2597656 C 15.469041 9.0423473 15.345832 8.6301371 15.066406 8.4316406 C 14.78698 8.2331464 14.181641 7.3945313 14.181641 7.3945312 C 15.395736 5.9457137 13.605054 5.8867374 13.525391 4.8671875 C 12.645433 5.632883 10.523478 5.4987058 8.5410156 5.9082031 C 6.5888244 6.3114539 5.7209619 7.6356481 6.0058594 8.6621094 C 4.5174144 11.781818 5.6881946 14.596721 9.359375 15.546875 C 9.0558974 16.443074 8.5167612 17.142955 7.7617188 17.591797 C 7.5200584 17.409869 7.2888061 17.211981 7.0703125 16.998047 C 6.9304871 16.861183 6.72364 16.818448 6.5410156 16.888672 C 6.082428 17.064936 5.6498652 17.300172 5.2519531 17.583984 C 3.9846326 16.066466 3.2226562 14.111477 3.2226562 11.972656 C 3.2226563 7.12833 7.12833 3.2226561 11.972656 3.2226562 z " />

</svg>
